<svg width="101" height="100" viewBox="0 0 101 100" fill="none" xmlns="http://www.w3.org/2000/svg">
<g opacity="0.5">
<path d="M7.06014 13.7705C6.66434 13.7846 6.27525 13.877 5.91533 14.0423C5.55541 14.2075 5.23177 14.4424 4.9631 14.7334C4.69442 15.0244 4.48602 15.3657 4.34993 15.7377C4.21383 16.1096 4.15272 16.5048 4.17014 16.9005V85.9005C4.14314 86.6946 4.43226 87.4669 4.97406 88.0481C5.51587 88.6293 6.2661 88.9718 7.06014 89.0005H93.8701C94.2702 88.9916 94.6645 88.9027 95.0298 88.7391C95.395 88.5755 95.7238 88.3405 95.9968 88.0479C96.2699 87.7553 96.4816 87.411 96.6196 87.0354C96.7575 86.6597 96.8189 86.2602 96.8001 85.8605V16.8605C96.8175 16.464 96.7561 16.068 96.6194 15.6954C96.4827 15.3228 96.2734 14.9811 96.0037 14.69C95.7339 14.3989 95.4091 14.1641 95.048 13.9994C94.687 13.8347 94.2968 13.7433 93.9001 13.7305L7.06014 13.7705ZM70.7201 16.6605C71.2933 16.6644 71.8524 16.8381 72.3268 17.1596C72.8013 17.4811 73.1699 17.936 73.386 18.4668C73.6021 18.9976 73.6562 19.5806 73.5412 20.1421C73.4262 20.7036 73.1475 21.2184 72.7401 21.6216C72.3328 22.0247 71.8151 22.2982 71.2524 22.4073C70.6898 22.5165 70.1074 22.4565 69.5788 22.2349C69.0503 22.0133 68.5992 21.64 68.2827 21.1622C67.9661 20.6845 67.7982 20.1236 67.8001 19.5505C67.8014 19.1688 67.8781 18.7911 68.0257 18.4391C68.1732 18.0871 68.3888 17.7677 68.6601 17.4992C68.9314 17.2307 69.253 17.0184 69.6065 16.8745C69.96 16.7306 70.3385 16.6578 70.7201 16.6605ZM79.4101 16.6605C79.9841 16.6605 80.5452 16.8308 81.0223 17.1499C81.4995 17.469 81.8711 17.9225 82.0903 18.453C82.3095 18.9835 82.3664 19.5671 82.2537 20.1299C82.141 20.6927 81.8638 21.2094 81.4572 21.6146C81.0506 22.0198 80.533 22.2952 79.9697 22.406C79.4065 22.5167 78.8231 22.4579 78.2934 22.2368C77.7637 22.0158 77.3115 21.6426 76.994 21.1643C76.6766 20.6861 76.5082 20.1245 76.5101 19.5505C76.5101 19.1701 76.5852 18.7935 76.7311 18.4422C76.8769 18.0909 77.0907 17.7719 77.3601 17.5034C77.6296 17.2349 77.9493 17.0222 78.3011 16.8776C78.6529 16.7329 79.0298 16.6592 79.4101 16.6605ZM88.0901 16.6605C88.6641 16.6605 89.2252 16.8308 89.7023 17.1499C90.1795 17.469 90.5511 17.9225 90.7703 18.453C90.9895 18.9835 91.0464 19.5671 90.9337 20.1299C90.821 20.6927 90.5438 21.2094 90.1372 21.6146C89.7306 22.0198 89.213 22.2952 88.6497 22.406C88.0865 22.5167 87.5031 22.4579 86.9734 22.2368C86.4437 22.0158 85.9915 21.6426 85.674 21.1643C85.3566 20.6861 85.1882 20.1245 85.1901 19.5505C85.1901 19.1701 85.2652 18.7935 85.4111 18.4422C85.5569 18.0909 85.7707 17.7719 86.0401 17.5034C86.3096 17.2349 86.6293 17.0222 86.9811 16.8776C87.3329 16.7329 87.7098 16.6592 88.0901 16.6605ZM9.80014 25.3405H91.1601C91.8561 25.3162 92.5333 25.5688 93.0432 26.0431C93.5531 26.5174 93.8541 27.1746 93.8801 27.8705V83.5705C93.8541 84.2672 93.5534 84.9254 93.0438 85.4012C92.5342 85.8771 91.857 86.1321 91.1601 86.1105H9.80014C9.10323 86.1321 8.42607 85.8771 7.91647 85.4012C7.40687 84.9254 7.10621 84.2672 7.08014 83.5705V27.8705C7.10619 27.1746 7.40718 26.5174 7.91708 26.0431C8.42699 25.5688 9.10418 25.3162 9.80014 25.3405Z" fill="black"/>
<path d="M77.9802 46.2002H22.8902C20.0497 46.2002 17.3256 47.3286 15.3171 49.3371C13.3085 51.3456 12.1802 54.0697 12.1802 56.9102C12.1802 59.7507 13.3085 62.4748 15.3171 64.4833C17.3256 66.4918 20.0497 67.6202 22.8902 67.6202H77.9802C80.8206 67.6202 83.5448 66.4918 85.5533 64.4833C87.5618 62.4748 88.6902 59.7507 88.6902 56.9102C88.6902 54.0697 87.5618 51.3456 85.5533 49.3371C83.5448 47.3286 80.8206 46.2002 77.9802 46.2002ZM14.9802 56.8402C14.9934 54.7528 15.8332 52.7558 17.3158 51.2864C18.7983 49.8169 20.8028 48.9949 22.8902 49.0002H65.8902V64.8202H22.8902C20.7875 64.7965 18.7788 63.946 17.2984 62.4526C15.8181 60.9592 14.9853 58.943 14.9802 56.8402ZM84.6302 61.1102C84.5602 61.0402 84.4902 60.9002 84.4202 60.8302L80.5702 57.1202C80.7706 56.5591 80.8656 55.9658 80.8502 55.3702C80.8502 54.2349 80.5135 53.1252 79.8828 52.1812C79.2521 51.2373 78.3556 50.5016 77.3068 50.0671C76.2579 49.6327 75.1038 49.519 73.9904 49.7405C72.8769 49.962 71.8541 50.5086 71.0514 51.3114C70.2486 52.1142 69.7019 53.1369 69.4805 54.2504C69.259 55.3638 69.3727 56.518 69.8071 57.5668C70.2416 58.6156 70.9773 59.5121 71.9212 60.1428C72.8651 60.7735 73.9749 61.1102 75.1102 61.1102C76.5671 61.1244 77.9725 60.5722 79.0302 59.5702L82.4602 62.8602C82.6002 62.9302 82.6702 63.0702 82.8102 63.0702C81.4147 64.1699 79.6868 64.7623 77.9102 64.7502H68.6702V49.0002H77.9802C79.3962 48.99 80.7887 49.363 82.01 50.0798C83.2313 50.7965 84.236 51.8303 84.9176 53.0715C85.5992 54.3128 85.9324 55.7153 85.8818 57.1305C85.8312 58.5456 85.3987 59.9208 84.6302 61.1102ZM75.1102 58.2402C74.5287 58.2402 73.9603 58.0678 73.4768 57.7447C72.9933 57.4217 72.6165 56.9625 72.394 56.4253C72.1714 55.8881 72.1132 55.2969 72.2267 54.7266C72.3401 54.1563 72.6201 53.6325 73.0313 53.2213C73.4425 52.8101 73.9663 52.5301 74.5366 52.4167C75.1069 52.3032 75.6981 52.3615 76.2353 52.584C76.7725 52.8065 77.2317 53.1833 77.5547 53.6668C77.8778 54.1503 78.0502 54.7187 78.0502 55.3002C78.0348 56.0751 77.7202 56.814 77.1721 57.3621C76.624 57.9102 75.8851 58.2248 75.1102 58.2402Z" fill="black"/>
</g>
</svg>
