<svg width="101" height="100" viewBox="0 0 101 100" fill="none" xmlns="http://www.w3.org/2000/svg">
<g opacity="0.5" clip-path="url(#clip0)">
<path fill-rule="evenodd" clip-rule="evenodd" d="M26.9499 10H0.599854V90L100.6 89.58V44.33H50.8199V32.15H26.9499V10ZM35.7799 53.9202C37.3099 52.0402 38.7199 50.3902 39.8899 49.2102V43.4502H11.5399V50.5702H28.4799C27.1384 52.14 25.6793 54.0265 24.1284 56.0318C24.0491 56.1343 23.9696 56.2371 23.8899 56.3402C23.6022 56.7121 23.3105 57.0855 23.0167 57.4616C21.6362 59.2289 20.2115 61.053 18.9499 63.0402C18.0791 64.4117 17.2052 65.7282 16.3335 67.0412C15.6735 68.0354 15.0148 69.0276 14.3599 70.0402C12.8399 72.3902 11.6599 74.3902 10.5999 76.2702V81.3302H40.5999V74.1502H21.3099C22.3669 72.3229 23.5919 70.4888 24.9021 68.527C25.1909 68.0947 25.4837 67.6562 25.7799 67.2102C27.148 65.1497 28.6135 63.1657 30.0139 61.27C30.2922 60.8932 30.568 60.5199 30.8399 60.1502C32.2077 58.2902 33.666 56.5068 35.0001 54.8753C35.2655 54.5507 35.526 54.2321 35.7799 53.9202Z" fill="black"/>
</g>
<defs>
<clipPath id="clip0">
<rect width="100" height="100" fill="white" transform="translate(0.599854)"/>
</clipPath>
</defs>
</svg>
