<svg width="1189" height="261" viewBox="0 0 1189 261" fill="none" xmlns="http://www.w3.org/2000/svg">
<path fill-rule="evenodd" clip-rule="evenodd" d="M72.4 114.4H0C3.3 85.5 16.4 58.5 37.3 37.7C61.7 13.5 94.8 0 129.4 0C164 0 197 13.6 221.5 37.7C226 42.2 230.2 46.9 234 52H111.4L72.4 114.4ZM251.2 176.8C257 161.6 259.9 145.4 259.6 128.8C259.6 113.1 256.7 97.6 251.2 83.2H129.6L99.7 130L129.6 176.8H251.2ZM233.9 208C230.6 212.4 227 216.6 223.1 220.6C199.1 245.2 166.3 259.4 131.7 260C97.2 260.6 63.8 247.6 39 223.9C17.1 203 3.4 175.3 0 145.6H72.4L111.4 208H233.9V208ZM1059.6 51.5C1054.3 51.5 1049.8 49.6 1046 45.8C1042.2 42 1040.3 37.5 1040.3 32.2C1040.3 26.9 1042.2 22.4 1046 18.6C1049.8 14.8 1054.3 12.9 1059.6 12.9C1064.9 12.9 1069.4 14.8 1073.2 18.6C1077 22.4 1078.9 26.9 1078.9 32.2C1078.9 37.5 1077 42 1073.2 45.8C1069.4 49.6 1064.9 51.5 1059.6 51.5ZM1076.7 66.9V196.1H1042.7V66.9H1076.7ZM402.5 165.3C397.5 167.6 392.2 168.8 386.4 168.8C376.5 168.8 368 165.2 361.1 158.1C354.3 151 350.9 142.1 350.9 131.6C350.9 121 354.2 112.1 360.8 104.8C367.6 97.5 375.8 93.9 385.6 93.9C391.7 93.9 397.4 95.2 402.7 97.9C408 100.5 412.9 104.4 417.6 109.6L438.4 87.5C431.8 80.2 423.8 74.6 414.3 70.6C404.9 66.5 395 64.4 384.8 64.4C375.4 64.4 366.4 66.1 358 69.6C349.7 73.1 342.5 77.9 336.4 84C330.4 90 325.7 97.1 322.3 105.3C318.8 113.4 317.1 122.2 317.1 131.6C317.1 141 318.8 149.9 322.3 158.1C325.8 166.2 330.5 173.2 336.4 179.2C342.5 185.2 349.7 189.9 358 193.3C366.4 196.8 375.4 198.5 384.8 198.5C394.7 198.5 404.3 196.5 413.6 192.5C422.9 188.4 430.8 182.7 437.4 175.4L417.1 154.3C412.5 159.4 407.7 163 402.5 165.3ZM447.1 105.3C443.6 113.4 441.9 122.2 441.9 131.6C441.9 141 443.6 149.9 447.1 158.1C450.7 166.2 455.6 173.2 461.7 179.2C468 185.2 475.3 189.9 483.8 193.3C492.2 196.8 501.2 198.5 510.8 198.5C520.4 198.5 529.4 196.8 537.8 193.3C546.2 189.8 553.5 185.1 559.6 179.2C565.9 173.2 570.8 166.2 574.2 158.1C577.8 149.8 579.7 141 579.7 131.6C579.7 122.2 577.9 113.4 574.2 105.3C570.7 97 565.9 89.9 559.6 84C553.5 77.9 546.2 73.1 537.8 69.6C529.4 66.1 520.4 64.4 510.8 64.4C501.2 64.4 492.2 66.1 483.8 69.6C475.4 73.1 468 77.9 461.7 84C455.6 90 450.7 97.1 447.1 105.3ZM536.1 158.2C529.2 165.5 520.7 169.1 510.8 169.1C500.9 169.1 492.4 165.5 485.5 158.2C478.6 150.9 475.1 142.1 475.1 131.7C475.1 121.1 478.6 112.2 485.5 104.9C492.4 97.6 500.9 94 510.8 94C520.7 94 529.2 97.6 536.1 104.9C543 112.2 546.5 121.1 546.5 131.7C546.5 142 543.1 150.9 536.1 158.2ZM598.2 196.1V66.9H632.2V76.6C636.8 72.6 642 69.7 647.6 67.7C653.2 65.6 659.3 64.5 666 64.5C674.3 64.5 681.7 66.2 688.3 69.7C695.1 73 700.6 77.7 704.9 83.8C710 77.5 716.2 72.7 723.5 69.4C730.8 66.1 738.8 64.4 747.6 64.4C762 64.4 773.8 69.2 783.1 78.8C792.4 88.4 797 100.7 797 115.8V196.1H763V120.7C763 112.6 760.8 106.1 756.3 101.1C752 96.1 746.1 93.7 738.7 93.7C733.6 93.7 728.9 94.9 724.6 97.2C720.5 99.3 716.9 102.5 713.9 106.6L714.4 111.1C714.6 112.6 714.6 114.2 714.6 115.8V196.1H680.6V120.7C680.6 112.6 678.4 106.1 673.9 101.1C669.6 96.1 663.7 93.7 656.3 93.7C651.2 93.7 646.6 94.7 642.7 96.7C638.8 98.7 635.3 101.6 632.3 105.4V196.1H598.2ZM820.4 66.9V196.1H854.4V105.3C857.4 101.5 860.8 98.6 864.8 96.6C868.8 94.6 873.3 93.6 878.4 93.6C885.8 93.6 891.7 96.1 896 101C900.5 106 902.7 112.5 902.7 120.6V196.1H936.7V115.7C936.7 114 936.6 112.5 936.5 111L936 106.5C939 102.4 942.5 99.2 946.7 97.1C951 94.8 955.7 93.6 960.8 93.6C968.2 93.6 974.1 96.1 978.4 101C982.9 106 985.1 112.5 985.1 120.6V196.1H1019.1V115.7C1019.1 100.7 1014.5 88.3 1005.2 78.7C995.9 69.1 984.1 64.3 969.7 64.3C960.9 64.3 952.9 66 945.6 69.3C938.3 72.6 932.1 77.4 927 83.7C922.7 77.6 917.2 72.9 910.4 69.6C903.8 66.1 896.4 64.4 888.1 64.4C881.5 64.4 875.4 65.5 869.7 67.6C864.1 69.6 859 72.6 854.3 76.5V66.8H820.4V66.9ZM1118.4 95.4V159.6C1118.4 172.2 1122 181.8 1129.3 188.4C1136.7 194.8 1147.7 198.1 1162 198.1C1165.6 198.1 1170 197.7 1175.1 196.9C1180.2 196.2 1184.6 195.3 1188.3 194.2V166.4C1185 167.6 1181.9 168.4 1179.1 168.9C1176.3 169.2 1173.3 169.4 1170.2 169.4C1163.6 169.4 1159 168.2 1156.3 165.7C1153.6 163.2 1152.3 158.9 1152.3 152.8V95.5H1189V67H1152.3V26.3L1118.3 34V67H1091.8V95.5H1118.4V95.4Z" fill="#010242"/>
</svg>
