<svg width="188" height="40" viewBox="0 0 188 40" fill="none" xmlns="http://www.w3.org/2000/svg">
<path d="M42.9037 39.9998H41.9297V35.7213H42.9037C44.1633 35.7339 45.3778 35.2534 46.2879 34.3825C47.1979 33.5116 47.7313 32.3193 47.774 31.0604C47.774 30.6599 47.774 30.2593 47.774 29.8406C47.774 26.7728 47.774 22.7947 50.3047 20C47.7558 17.1962 47.7649 13.2272 47.774 10.1503C47.774 9.74061 47.774 9.33097 47.774 8.93952C47.7336 7.67903 47.2013 6.48445 46.291 5.61159C45.3807 4.73874 44.1648 4.25701 42.9037 4.26956H41.9297V0.000128615H42.9037C45.287 -0.012532 47.5802 0.909969 49.2908 2.5695C51.0014 4.22903 51.993 6.49323 52.0525 8.8758V10.1685C52.0525 14.1102 52.2255 16.7956 54.7835 18.0883L58.534 20L54.7926 21.9026C52.2255 23.2043 52.0616 25.8807 52.0616 29.8315V31.115C52.0044 33.5008 51.0126 35.7687 49.2998 37.4304C47.587 39.0921 45.2901 40.0148 42.9037 39.9998Z" fill="#010242"/>
<path d="M16.5679 39.9997H15.5939C13.2169 40.0004 10.934 39.0713 9.23293 37.4111C7.53188 35.7509 6.54767 33.4912 6.49062 31.1149C6.49062 30.6962 6.49062 30.2683 6.49062 29.8314C6.49062 25.8806 6.31766 23.2042 3.75964 21.9024L0 19.9998L3.75964 18.0882C6.31766 16.7955 6.49062 14.11 6.49062 10.1683C6.49062 9.72228 6.49062 9.25801 6.49062 8.87568C6.55001 6.501 7.53525 4.2436 9.23605 2.58532C10.9368 0.927046 13.2185 -0.000741985 15.5939 4.45235e-07H16.5679V4.26943H15.5939C14.3328 4.25688 13.1169 4.73861 12.2066 5.61147C11.2964 6.48432 10.764 7.6789 10.7236 8.9394C10.7236 9.33084 10.7236 9.74048 10.7236 10.1501C10.7236 13.227 10.7236 17.196 8.19293 19.9998C10.7418 22.7945 10.7327 26.7727 10.7236 29.8405C10.7236 30.2592 10.7236 30.6598 10.7236 31.0603C10.7664 32.3192 11.2997 33.5115 12.2097 34.3824C13.1198 35.2533 14.3343 35.7338 15.5939 35.7212H16.5679V39.9997Z" fill="#010242"/>
<path d="M35.3665 32.7263H31.088V22.4851H27.4467V32.7263H23.1409V22.4851H21.475C20.2921 22.4851 19.1357 22.1343 18.1522 21.4772C17.1687 20.82 16.4021 19.8859 15.9494 18.793C15.4967 17.7002 15.3783 16.4976 15.6091 15.3375C15.8398 14.1773 16.4095 13.1116 17.2459 12.2752C18.0823 11.4388 19.148 10.8691 20.3082 10.6384C21.4683 10.4076 22.6709 10.526 23.7637 10.9787C24.8566 11.4314 25.7907 12.198 26.4479 13.1815C27.1051 14.165 27.4558 15.3214 27.4558 16.5043V18.2066H31.0971V16.5043C31.0971 15.3214 31.4479 14.165 32.1051 13.1815C32.7623 12.198 33.6963 11.4314 34.7892 10.9787C35.882 10.526 37.0846 10.4076 38.2448 10.6384C39.4049 10.8691 40.4706 11.4388 41.307 12.2752C42.1435 13.1116 42.7131 14.1773 42.9439 15.3375C43.1746 16.4976 43.0562 17.7002 42.6035 18.793C42.1509 19.8859 41.3843 20.82 40.4007 21.4772C39.4172 22.1343 38.2609 22.4851 37.078 22.4851H35.3665V32.7263ZM35.3665 18.1611H37.0689C37.4081 18.1629 37.7402 18.0638 38.0231 17.8764C38.3059 17.6891 38.5267 17.4219 38.6573 17.1088C38.788 16.7957 38.8226 16.4509 38.7569 16.118C38.6912 15.7852 38.528 15.4794 38.2881 15.2395C38.0482 14.9996 37.7424 14.8365 37.4096 14.7707C37.0768 14.705 36.7319 14.7396 36.4188 14.8703C36.1057 15.0009 35.8385 15.2217 35.6512 15.5045C35.4638 15.7874 35.3647 16.1195 35.3665 16.4588V18.1611ZM21.475 14.7929C21.0438 14.8244 20.6406 15.0179 20.3462 15.3345C20.0519 15.6511 19.8883 16.0674 19.8883 16.4997C19.8883 16.932 20.0519 17.3483 20.3462 17.6649C20.6406 17.9816 21.0438 18.1751 21.475 18.2066H23.1864V16.5043C23.184 16.0511 23.0029 15.6172 22.6825 15.2968C22.3621 14.9763 21.9281 14.7953 21.475 14.7929Z" fill="#010242"/>
<path d="M79.4529 24.1237L82.4661 27.1824C81.5401 28.2686 80.3885 29.1399 79.0915 29.7358C77.7945 30.3316 76.3832 30.6376 74.9559 30.6325C72.4208 30.6325 69.9896 29.6255 68.1971 27.8329C66.4045 26.0404 65.3975 23.6091 65.3975 21.0741C65.3975 18.539 66.4045 16.1078 68.1971 14.3153C69.9896 12.5227 72.4208 11.5157 74.9559 11.5157C76.372 11.5114 77.7721 11.8163 79.0582 12.4091C80.3443 13.0019 81.4856 13.8682 82.4023 14.9476L79.2162 17.7787C78.6854 17.174 78.0315 16.6898 77.2983 16.3585C76.5651 16.0273 75.7696 15.8566 74.965 15.8579C74.2806 15.8487 73.6014 15.9791 72.9691 16.2412C72.3368 16.5033 71.7646 16.8916 71.2875 17.3824C70.8103 17.8732 70.4383 18.4561 70.1941 19.0955C69.9499 19.735 69.8386 20.4175 69.8672 21.1014C69.8374 21.786 69.9476 22.4695 70.1913 23.1101C70.4349 23.7506 70.8068 24.3346 71.284 24.8264C71.7613 25.3181 72.334 25.7073 72.9669 25.9699C73.5998 26.2326 74.2798 26.3633 74.965 26.354C75.8379 26.3743 76.7026 26.1819 77.4845 25.7933C78.2664 25.4047 78.942 24.8317 79.4529 24.1237Z" fill="#010242"/>
<path d="M102.667 21.092C102.698 23.0157 102.155 24.9052 101.109 26.5197C100.062 28.1343 98.5592 29.4009 96.7906 30.1585C95.022 30.9161 93.068 31.1303 91.1773 30.7739C89.2866 30.4175 87.5447 29.5065 86.1733 28.157C84.8019 26.8075 83.8631 25.0805 83.4763 23.1958C83.0895 21.311 83.2722 19.3538 84.0012 17.5733C84.7302 15.7927 85.9726 14.2693 87.5701 13.197C89.1676 12.1247 91.048 11.552 92.9721 11.5518C94.2372 11.5337 95.4933 11.767 96.6676 12.2381C97.8419 12.7092 98.911 13.4088 99.8128 14.2962C100.715 15.1837 101.431 16.2414 101.921 17.4079C102.411 18.5745 102.665 19.8267 102.667 21.092ZM97.988 21.092C98.0471 20.3986 97.9616 19.7004 97.7369 19.0418C97.5122 18.3832 97.1531 17.7784 96.6824 17.2658C96.2117 16.7533 95.6397 16.344 95.0025 16.0641C94.3654 15.7842 93.6771 15.6396 92.9812 15.6396C92.2852 15.6396 91.5969 15.7842 90.9598 16.0641C90.3227 16.344 89.7506 16.7533 89.2799 17.2658C88.8092 17.7784 88.4501 18.3832 88.2254 19.0418C88.0007 19.7004 87.9152 20.3986 87.9744 21.092C87.9152 21.7854 88.0007 22.4835 88.2254 23.1421C88.4501 23.8007 88.8092 24.4055 89.2799 24.9181C89.7506 25.4307 90.3227 25.8399 90.9598 26.1198C91.5969 26.3998 92.2852 26.5443 92.9812 26.5443C93.6771 26.5443 94.3654 26.3998 95.0025 26.1198C95.6397 25.8399 96.2117 25.4307 96.6824 24.9181C97.1531 24.4055 97.5122 23.8007 97.7369 23.1421C97.9616 22.4835 98.0471 21.7854 97.988 21.092Z" fill="#010242"/>
<path d="M132.534 18.4888V30.1774H127.937V19.6813C127.937 17.1871 127.026 15.8489 124.678 15.8489C123.934 15.8958 123.214 16.1353 122.59 16.5438C121.966 16.9523 121.459 17.5159 121.118 18.1793V30.1774H116.521V19.6813C116.521 17.1871 115.611 15.8489 113.262 15.8489C112.518 15.8958 111.799 16.1353 111.175 16.5438C110.551 16.9523 110.044 17.5159 109.703 18.1793V30.1774H105.151V12.0164H109.439V14.6564C109.99 13.7208 110.772 12.9434 111.712 12.3995C112.651 11.8556 113.715 11.5637 114.801 11.5521C119.17 11.5521 120.436 14.7383 120.436 14.7383C121.017 13.7301 121.862 12.9001 122.881 12.3384C123.9 11.7768 125.054 11.5049 126.216 11.5521C129.803 11.5521 132.534 14.1193 132.534 18.4888Z" fill="#010242"/>
<path d="M163.577 18.4888V30.1774H159.025V19.6813C159.025 17.1871 158.06 15.8489 155.766 15.8489C155.022 15.8958 154.302 16.1353 153.678 16.5438C153.054 16.9523 152.547 17.5159 152.207 18.1793V30.1774H147.609V19.6813C147.609 17.1871 146.645 15.8489 144.35 15.8489C143.596 15.8868 142.864 16.1219 142.228 16.5308C141.592 16.9397 141.075 17.5081 140.727 18.1793V30.1774H136.176V12.0164H140.473V14.6564C141.023 13.7208 141.806 12.9434 142.745 12.3995C143.685 11.8556 144.749 11.5637 145.834 11.5521C150.204 11.5521 151.469 14.7383 151.469 14.7383C152.05 13.7301 152.896 12.9001 153.915 12.3384C154.934 11.7768 156.087 11.5049 157.25 11.5521C160.891 11.5521 163.577 14.1193 163.577 18.4888Z" fill="#010242"/>
<path d="M170.24 3.11341C170.838 3.11521 171.421 3.29399 171.917 3.62717C172.413 3.96036 172.799 4.433 173.026 4.9854C173.254 5.53781 173.312 6.1452 173.194 6.73086C173.077 7.31653 172.788 7.8542 172.365 8.27596C171.942 8.69772 171.404 8.98466 170.818 9.10054C170.232 9.21642 169.624 9.15604 169.073 8.92703C168.521 8.69801 168.049 8.31064 167.718 7.81382C167.386 7.31701 167.209 6.73305 167.209 6.13569C167.207 5.73735 167.283 5.3425 167.435 4.97413C167.587 4.60576 167.81 4.27121 168.092 3.98996C168.374 3.70871 168.709 3.48638 169.078 3.33589C169.447 3.18541 169.842 3.10978 170.24 3.11341ZM167.937 11.9982H172.534V30.1774H167.937V11.9982Z" fill="#010242"/>
<path d="M175.447 12.0164H179.007V6.61816H183.558V12.0164H187.673V16.1493H183.604V23.4319C183.604 25.6531 184.76 26.3085 185.98 26.3085H187.718V30.5961C187.718 30.5961 187.072 30.5961 185.215 30.5961C184.375 30.6138 183.541 30.4577 182.765 30.1375C181.988 29.8173 181.287 29.34 180.704 28.7355C180.121 28.1311 179.669 27.4126 179.377 26.6253C179.085 25.8379 178.959 24.9986 179.007 24.1601V16.1493H175.447V12.0164Z" fill="#010242"/>
</svg>
