<svg width="80" height="54" viewBox="0 0 80 54" fill="none" xmlns="http://www.w3.org/2000/svg">
<path fill-rule="evenodd" clip-rule="evenodd" d="M57.9204 53.9998H56.6054V48.2237H57.9204C59.6208 48.2408 61.2604 47.5921 62.489 46.4164C63.7175 45.2407 64.4375 43.6311 64.4952 41.9316V40.2848C64.4952 36.1433 64.4952 30.7728 67.9117 27C64.4706 23.2148 64.4829 17.8567 64.4952 13.7028V12.0684C64.4407 10.3667 63.722 8.754 62.4931 7.57565C61.2643 6.3973 59.6228 5.74696 57.9204 5.7639H56.6054V0.000173631H57.9204C61.1378 -0.0169182 64.2336 1.22846 66.5429 3.46883C68.8522 5.7092 70.1908 8.76586 70.2712 11.9823V13.7274C70.2712 19.0487 70.5047 22.6741 73.958 24.4192L79.0213 27L73.9703 29.5684C70.5047 31.3258 70.2835 34.9389 70.2835 40.2725V42.0053C70.2062 45.2261 68.8673 48.2877 66.555 50.531C64.2428 52.7744 61.142 54.02 57.9204 53.9998ZM22.3667 53.9997H21.0517C17.8428 54.0007 14.7609 52.7464 12.4645 50.5051C10.168 48.2638 8.83935 45.2132 8.76234 42.0053V40.2725C8.76234 34.9389 8.52884 31.3258 5.07552 29.5684L0 26.9999L5.07552 24.4192C8.52884 22.6741 8.76234 19.0487 8.76234 13.7274V11.9823C8.84251 8.7765 10.1726 5.729 12.4687 3.49033C14.7647 1.25165 17.8449 -0.000859167 21.0517 0.000143113H22.3667V5.76387H21.0517C19.3493 5.74693 17.7078 6.39727 16.479 7.57562C15.2501 8.75397 14.5314 10.3667 14.4769 12.0683V13.7028C14.4769 17.8566 14.4769 23.2148 11.0605 26.9999C14.5015 30.7728 14.4892 36.1432 14.4769 40.2848V41.9315C14.5346 43.6311 15.2546 45.2406 16.4831 46.4164C17.7117 47.5921 19.3513 48.2407 21.0517 48.2237H22.3667V53.9997ZM41.9659 44.1806H47.7419V30.3551H50.0523C51.6492 30.3551 53.2102 29.8815 54.538 28.9943C55.8658 28.1072 56.9007 26.8461 57.5118 25.3708C58.1229 23.8954 58.2828 22.272 57.9713 20.7058C57.6597 19.1395 56.8907 17.7009 55.7615 16.5717C54.6324 15.4425 53.1937 14.6735 51.6275 14.362C50.0612 14.0504 48.4378 14.2103 46.9624 14.8214C45.4871 15.4325 44.2261 16.4674 43.3389 17.7952C42.4517 19.123 41.9781 20.684 41.9781 22.281V24.5791H37.0624V22.281C37.0624 20.684 36.5889 19.123 35.7017 17.7952C34.8145 16.4674 33.5534 15.4325 32.0781 14.8214C30.6027 14.2103 28.9793 14.0504 27.4131 14.362C25.8468 14.6735 24.4082 15.4425 23.279 16.5717C22.1498 17.7009 21.3808 19.1395 21.0693 20.7058C20.7577 22.272 20.9176 23.8954 21.5287 25.3708C22.1398 26.8461 23.1747 28.1072 24.5025 28.9943C25.8303 29.8815 27.3913 30.3551 28.9883 30.3551H31.2372V44.1806H37.0501V30.3551H41.9659V44.1806ZM50.04 24.5176H47.7419V22.2195C47.7394 21.7615 47.8732 21.3131 48.1261 20.9313C48.379 20.5495 48.7398 20.2515 49.1624 20.0751C49.5851 19.8987 50.0507 19.8519 50.5 19.9406C50.9493 20.0294 51.3621 20.2497 51.6859 20.5735C52.0098 20.8974 52.2301 21.3102 52.3188 21.7595C52.4076 22.2088 52.3608 22.6744 52.1844 23.0971C52.008 23.5197 51.71 23.8804 51.3282 24.1334C50.9464 24.3863 50.498 24.5201 50.04 24.5176ZM27.4645 20.7018C27.8618 20.2743 28.4062 20.0131 28.9883 19.9705C29.6 19.9738 30.1858 20.2182 30.6184 20.6508C31.051 21.0834 31.2954 21.6692 31.2987 22.281V24.5791H28.9883C28.4062 24.5365 27.8618 24.2753 27.4645 23.8479C27.0671 23.4204 26.8462 22.8584 26.8462 22.2748C26.8462 21.6912 27.0671 21.1292 27.4645 20.7018Z" fill="white"/>
</svg>
