<?xml version="1.0" encoding="utf-8"?>
<!-- Generator: Adobe Illustrator 24.3.0, SVG Export Plug-In . SVG Version: 6.00 Build 0)  -->
<svg width="54" height="54" version="1.1" id="Layer_1" xmlns="http://www.w3.org/2000/svg" xmlns:xlink="http://www.w3.org/1999/xlink" x="0px" y="0px"
	 viewBox="0 0 1080 1080" style="enable-background:new 0 0 1080 1080;" xml:space="preserve">
<style type="text/css">
	.st0{fill:#010242;}
</style>
<path class="st0" d="M1044.9,734.4c24.2-63,36.3-130.6,35-199.3c0-65.4-12.1-129.5-35.1-189.5H539.2L414.8,540l124.4,194.4H1044.9z
	 M973.1,864c-13.7,18.3-28.7,35.7-44.9,52.3c-99.7,102.2-236.5,161-380.1,163.6c-143.6,2.6-282.4-51.3-385.9-149.8
	C71.1,843.2,14.1,728,0,604.8h301.2L463.4,864H973.1z M0.1,475.2h301.1L463.4,216h509.6c-15.7-20.9-33-40.7-51.8-59.3
	C819.7,56.4,681.9,0,538.3,0c-143.6,0-281.4,56.4-383,156.7C68.1,242.9,13.7,355.3,0.1,475.2z"/>
</svg>
