<svg width="1189" height="260" viewBox="0 0 1189 260" fill="none" xmlns="http://www.w3.org/2000/svg">
<g clip-path="url(#clip0)">
<path fill-rule="evenodd" clip-rule="evenodd" d="M72.393 114.4H0.0200043C3.304 85.541 16.377 58.465 37.332 37.73C61.746 13.572 94.859 0 129.386 0C163.913 0 197.026 13.572 221.44 37.73C225.964 42.207 230.12 46.979 233.89 52H111.393L72.393 114.4ZM251.148 176.8C256.957 161.626 259.874 145.357 259.57 128.818C259.57 113.081 256.659 97.64 251.133 83.2H129.593L99.693 129.999L129.593 176.8H251.148ZM233.901 208C230.599 212.398 226.999 216.606 223.113 220.593C199.143 245.19 166.28 259.358 131.753 259.979C97.226 260.6 63.864 247.624 39.006 223.905C17.101 203.005 3.381 175.271 0 145.6H72.393L111.393 208H233.901ZM1059.57 51.548C1054.28 51.548 1049.73 49.647 1045.93 45.844C1042.13 42.041 1040.23 37.495 1040.23 32.204C1040.23 26.913 1042.13 22.367 1045.93 18.564C1049.73 14.761 1054.28 12.86 1059.57 12.86C1064.86 12.86 1069.41 14.761 1073.21 18.564C1077.01 22.367 1078.92 26.913 1078.92 32.204C1078.92 37.495 1077.01 42.041 1073.21 45.844C1069.41 49.647 1064.86 51.548 1059.57 51.548ZM1076.68 66.924V196.132H1042.71V66.924H1076.68ZM402.522 165.38C397.562 167.695 392.188 168.852 386.402 168.852C376.482 168.852 368.05 165.297 361.106 158.188C354.327 151.079 350.938 142.233 350.938 131.652C350.938 121.071 354.244 112.143 360.858 104.868C367.636 97.593 375.903 93.956 385.658 93.956C391.775 93.956 397.479 95.279 402.77 97.924C408.06 100.569 413.02 104.455 417.65 109.58L438.482 87.508C431.868 80.233 423.85 74.612 414.426 70.644C405.002 66.511 395.164 64.444 384.914 64.444C375.49 64.444 366.562 66.18 358.13 69.652C349.863 73.124 342.671 77.919 336.554 84.036C330.602 89.988 325.89 97.097 322.418 105.364C318.946 113.465 317.21 122.228 317.21 131.652C317.21 141.076 318.946 149.921 322.418 158.188C325.89 166.289 330.602 173.316 336.554 179.268C342.671 185.22 349.863 189.932 358.13 193.404C366.562 196.876 375.49 198.612 384.914 198.612C394.834 198.612 404.423 196.628 413.682 192.66C422.94 188.527 430.876 182.823 437.49 175.548L417.154 154.468C412.524 159.428 407.647 163.065 402.522 165.38ZM447.086 105.364C443.614 113.465 441.878 122.228 441.878 131.652C441.878 141.076 443.614 149.921 447.086 158.188C450.723 166.289 455.601 173.316 461.718 179.268C468.001 185.22 475.358 189.932 483.79 193.404C492.222 196.876 501.233 198.612 510.822 198.612C520.411 198.612 529.422 196.876 537.854 193.404C546.286 189.932 553.561 185.22 559.678 179.268C565.961 173.316 570.838 166.289 574.31 158.188C577.947 149.921 579.766 141.076 579.766 131.652C579.766 122.228 577.947 113.465 574.31 105.364C570.838 97.097 565.961 89.988 559.678 84.036C553.561 77.919 546.286 73.124 537.854 69.652C529.422 66.18 520.411 64.444 510.822 64.444C501.233 64.444 492.222 66.18 483.79 69.652C475.358 73.124 468.001 77.919 461.718 84.036C455.601 89.988 450.723 97.097 447.086 105.364ZM536.118 158.188C529.174 165.463 520.742 169.1 510.822 169.1C500.902 169.1 492.47 165.463 485.526 158.188C478.582 150.913 475.11 142.068 475.11 131.652C475.11 121.071 478.582 112.143 485.526 104.868C492.47 97.593 500.902 93.956 510.822 93.956C520.742 93.956 529.174 97.593 536.118 104.868C543.062 112.143 546.534 121.071 546.534 131.652C546.534 142.068 543.062 150.913 536.118 158.188ZM598.17 196.132V66.924H632.146V76.596C636.776 72.628 641.901 69.652 647.522 67.668C653.144 65.519 659.261 64.444 665.874 64.444C674.141 64.444 681.581 66.18 688.194 69.652C694.973 72.959 700.512 77.671 704.81 83.788C709.936 77.505 716.136 72.711 723.41 69.404C730.685 66.097 738.704 64.444 747.466 64.444C761.85 64.444 773.672 69.239 782.93 78.828C792.189 88.417 796.818 100.735 796.818 115.78V196.132H762.842V120.74C762.842 112.639 760.61 106.108 756.146 101.148C751.848 96.188 745.978 93.708 738.538 93.708C733.413 93.708 728.701 94.865 724.402 97.18C720.269 99.329 716.714 102.471 713.738 106.604L714.234 111.068C714.4 112.556 714.482 114.127 714.482 115.78V196.132H680.506V120.74C680.506 112.639 678.274 106.108 673.81 101.148C669.512 96.188 663.642 93.708 656.202 93.708C651.077 93.708 646.53 94.7 642.562 96.684C638.594 98.668 635.122 101.561 632.146 105.364V196.132H598.17ZM820.44 66.924V196.132H854.416V105.364C857.392 101.561 860.864 98.668 864.832 96.684C868.8 94.7 873.347 93.708 878.473 93.708C885.913 93.708 891.783 96.188 896.083 101.148C900.543 106.108 902.773 112.639 902.773 120.74V196.132H936.753V115.78C936.753 114.127 936.673 112.556 936.503 111.068L936.013 106.604C938.983 102.471 942.543 99.329 946.673 97.18C950.973 94.865 955.683 93.708 960.813 93.708C968.253 93.708 974.113 96.188 978.413 101.148C982.883 106.108 985.113 112.639 985.113 120.74V196.132H1019.09V115.78C1019.09 100.735 1014.46 88.417 1005.2 78.828C995.943 69.239 984.123 64.444 969.733 64.444C960.973 64.444 952.953 66.097 945.683 69.404C938.403 72.711 932.203 77.505 927.083 83.788C922.783 77.671 917.243 72.959 910.463 69.652C903.853 66.18 896.413 64.444 888.143 64.444C881.533 64.444 875.414 65.519 869.792 67.668C864.171 69.652 859.046 72.628 854.416 76.596V66.924H820.44ZM1118.38 95.444V159.676C1118.38 172.241 1122.02 181.831 1129.29 188.444C1136.73 194.892 1147.65 198.116 1162.03 198.116C1165.67 198.116 1170.05 197.703 1175.17 196.876C1180.3 196.215 1184.68 195.305 1188.32 194.148V166.372C1185.01 167.529 1181.95 168.356 1179.14 168.852C1176.33 169.183 1173.36 169.348 1170.21 169.348C1163.6 169.348 1158.97 168.108 1156.33 165.628C1153.68 163.148 1152.36 158.849 1152.36 152.732V95.444H1189.06V66.924H1152.36V26.252L1118.38 33.94V66.924H1091.85V95.444H1118.38Z" fill="white"/>
</g>
<defs>
<clipPath id="clip0">
<rect width="1189" height="260" fill="white"/>
</clipPath>
</defs>
</svg>
