<svg width="101" height="100" viewBox="0 0 101 100" fill="none" xmlns="http://www.w3.org/2000/svg">
<g opacity="0.5">
<path d="M94.3999 18.7701C94.3718 18.53 94.2811 18.3015 94.1369 18.1075C93.9928 17.9135 93.8002 17.7607 93.5784 17.6645C93.3566 17.5683 93.1135 17.5321 92.8733 17.5594C92.6332 17.5867 92.4044 17.6766 92.2099 17.8201C89.7722 19.2869 86.9633 20.0195 84.1199 19.9301C79.7975 19.8149 75.5849 18.5442 71.9199 16.2501L71.7699 16.1701C68.9975 15.0035 66.0436 14.3268 63.0399 14.1701C57.8699 14.1701 56.6299 17.3101 56.3499 19.1701C56.3499 19.2801 56.3499 19.4001 56.3499 19.5101C56.5499 21.6301 56.2299 23.9201 55.6899 24.5101C55.2073 24.5063 54.7291 24.602 54.2852 24.7912C53.8413 24.9805 53.4412 25.2593 53.1099 25.6101H51.7199V25.3701C51.7199 25.3701 51.7199 25.3001 51.7199 25.2701V16.7201C53.0309 16.3829 54.1739 15.579 54.9344 14.4591C55.695 13.3392 56.0208 11.9804 55.8509 10.6374C55.6809 9.29437 55.0268 8.0595 54.0113 7.16438C52.9958 6.26926 51.6886 5.77539 50.3349 5.77539C48.9811 5.77539 47.6739 6.26926 46.6584 7.16438C45.6429 8.0595 44.9888 9.29437 44.8188 10.6374C44.6489 11.9804 44.9748 13.3392 45.7353 14.4591C46.4958 15.579 47.6388 16.3829 48.9499 16.7201V25.2601C48.9499 25.2601 48.9499 25.3401 48.9499 25.3701V25.6301H48.7599H47.2499C46.9132 25.2752 46.5065 24.9942 46.0554 24.8049C45.6044 24.6155 45.1189 24.5219 44.6299 24.5301C44.0899 23.9401 43.7599 21.6501 43.9599 19.5301C43.9748 19.4206 43.9748 19.3096 43.9599 19.2001C43.6899 17.3301 42.4499 14.2001 37.2799 14.2001C34.2759 14.3552 31.3218 15.032 28.5499 16.2001L28.3999 16.2701C24.7345 18.5731 20.5172 19.8476 16.1899 19.9601C13.3482 20.0333 10.5438 19.3019 8.09986 17.8501C7.90542 17.7091 7.67755 17.6213 7.43877 17.5954C7.19999 17.5694 6.95858 17.6062 6.73839 17.7022C6.51821 17.7981 6.32688 17.9499 6.18332 18.1425C6.03977 18.335 5.94895 18.5617 5.91986 18.8001C5.07986 25.6601 12.9199 30.8001 15.2399 32.1701C19.7875 31.1303 23.8402 28.5603 26.7199 24.8901C30.7699 19.5201 35.8799 16.8901 41.9399 16.8901V18.2801C36.2499 18.2801 31.6699 20.6801 27.8399 25.7501C24.9457 29.5073 20.8813 32.1922 16.2899 33.3801C17.2335 34.6159 18.4549 35.6121 19.8552 36.2879C21.2555 36.9637 22.7953 37.3002 24.3499 37.2701C24.885 37.2676 25.4194 37.2308 25.9499 37.1601C28.725 35.041 30.8857 32.221 32.2099 28.9901C33.4399 25.6901 35.0999 22.9901 42.8799 22.9901V24.3701C35.3999 24.2901 34.3999 26.9001 33.4699 29.4101C32.2545 32.479 30.3081 35.2046 27.7999 37.3501C28.7878 37.9343 29.9122 38.2481 31.0599 38.2601C33.9399 38.2601 36.2999 36.2601 38.1999 34.6901C38.877 34.0806 39.6141 33.5412 40.3999 33.0801C41.0767 32.7253 41.8259 32.5303 42.5899 32.5101C45.8099 32.5101 47.4399 36.8701 47.4499 36.9101C47.5368 37.1559 47.6931 37.3712 47.8999 37.5301C42.1699 38.5301 37.8299 43.0201 37.8299 48.3901C37.8945 50.5217 38.5773 52.5886 39.7952 54.3391C41.0132 56.0897 42.7137 57.4485 44.6899 58.2501C43.4827 58.9256 42.4714 59.9026 41.7545 61.0856C41.0377 62.2687 40.6398 63.6174 40.5999 65.0001C40.5999 68.6001 43.2999 71.6601 47.0699 72.8101C44.0699 73.8101 41.9899 76.3201 41.9899 79.1801C41.9899 82.6601 45.0999 85.5401 49.1299 86.0201C49.4899 88.8101 49.8599 91.6001 50.3299 94.3801C50.7999 91.6001 51.1599 88.8101 51.5199 86.0201C55.5199 85.5401 58.6699 82.6601 58.6699 79.1801C58.6699 76.3201 56.5699 73.8601 53.5799 72.8101C57.3999 71.6601 60.0599 68.6001 60.0599 65.0001C60.0209 63.6184 59.6246 62.2703 58.9095 61.0874C58.1945 59.9044 57.1851 58.9269 55.9799 58.2501C57.956 57.4485 59.6566 56.0897 60.8745 54.3391C62.0924 52.5886 62.7752 50.5217 62.8399 48.3901C62.8399 42.9201 58.3299 38.3901 52.4299 37.4901C52.6052 37.3315 52.7391 37.1324 52.8199 36.9101C52.8199 36.9101 54.4899 32.5101 57.6799 32.5101C58.4469 32.5312 59.1991 32.7261 59.8799 33.0801C60.6587 33.5423 61.389 34.0817 62.0599 34.6901C63.9599 36.2801 66.3199 38.2601 69.1999 38.2601C70.4097 38.2446 71.5923 37.8988 72.6199 37.2601C70.5967 34.8098 68.7583 32.2127 67.1199 29.4901C66.9499 29.2101 66.7899 28.9301 66.6299 28.6401C65.3999 26.3801 64.1799 24.2401 57.6999 24.3001V22.9201C64.9499 22.9201 66.4999 25.5701 67.8499 27.9201C67.9999 28.1901 68.1499 28.4601 68.3099 28.7301C70.2213 31.9365 72.4383 34.9505 74.9299 37.7301C75.3252 37.8077 75.727 37.8479 76.1299 37.8501C77.4786 37.9155 78.8188 37.604 80.0005 36.9505C81.1821 36.297 82.1584 35.3273 82.8199 34.1501C83.1199 33.9801 83.3699 33.2801 83.8199 32.8601C81.5605 32.5248 79.3992 31.7097 77.4811 30.4695C75.5631 29.2293 73.9328 27.5929 72.6999 25.6701C71.1833 23.3629 69.113 21.4724 66.678 20.171C64.243 18.8696 61.5207 18.1989 58.7599 18.2201H58.6199V16.8301H58.7699C61.7581 16.8064 64.7048 17.5315 67.3407 18.9395C69.9767 20.3474 72.2179 22.3932 73.8599 24.8901C77.7099 30.5401 82.6499 31.6301 85.5699 31.7101C89.3999 29.0001 94.9999 24.1001 94.3999 18.7701ZM50.3999 14.1301C49.8529 14.1262 49.3193 13.9604 48.8664 13.6536C48.4135 13.3468 48.0616 12.9129 47.855 12.4064C47.6484 11.8999 47.5964 11.3436 47.7055 10.8076C47.8147 10.2716 48.0801 9.77987 48.4682 9.39448C48.8564 9.00909 49.35 8.74725 49.8868 8.64198C50.4235 8.53671 50.9795 8.59272 51.4845 8.80295C51.9894 9.01318 52.4209 9.36821 52.7244 9.8233C53.0279 10.2784 53.1898 10.8131 53.1899 11.3601C53.1887 11.7312 53.1132 12.0983 52.9679 12.4397C52.8227 12.7811 52.6105 13.09 52.344 13.3482C52.0774 13.6064 51.7619 13.8085 51.416 13.9428C51.0701 14.0771 50.7008 14.1408 50.3299 14.1301H50.3999Z" fill="black"/>
</g>
</svg>
