<svg width="33" height="33" viewBox="0 0 33 33" fill="none" xmlns="http://www.w3.org/2000/svg">
<path d="M26.2881 5.9082H6.28809C5.7358 5.9082 5.28809 6.35592 5.28809 6.9082V26.9082C5.28809 27.4605 5.7358 27.9082 6.28809 27.9082H26.2881C26.8404 27.9082 27.2881 27.4605 27.2881 26.9082V6.9082C27.2881 6.35592 26.8404 5.9082 26.2881 5.9082Z" stroke="white" stroke-width="2" stroke-linecap="round" stroke-linejoin="round"/>
<path d="M15.2881 14.9082V22.9082" stroke="white" stroke-width="2" stroke-linecap="round" stroke-linejoin="round"/>
<path d="M11.2881 14.9082V22.9082" stroke="white" stroke-width="2" stroke-linecap="round" stroke-linejoin="round"/>
<path d="M15.2881 18.4082C15.2881 17.4799 15.6568 16.5897 16.3132 15.9333C16.9696 15.277 17.8598 14.9082 18.7881 14.9082C19.7163 14.9082 20.6066 15.277 21.263 15.9333C21.9193 16.5897 22.2881 17.4799 22.2881 18.4082V22.9082" stroke="white" stroke-width="2" stroke-linecap="round" stroke-linejoin="round"/>
<path d="M11.2881 12.4082C12.1165 12.4082 12.7881 11.7366 12.7881 10.9082C12.7881 10.0798 12.1165 9.4082 11.2881 9.4082C10.4597 9.4082 9.78809 10.0798 9.78809 10.9082C9.78809 11.7366 10.4597 12.4082 11.2881 12.4082Z" fill="white"/>
</svg>
