<svg width="33" height="33" viewBox="0 0 33 33" fill="none" xmlns="http://www.w3.org/2000/svg">
<path d="M30.2886 8.49088C29.1999 10.0495 27.8417 11.4011 26.2778 12.4821L26.2778 12.4821C26.1789 15.2159 25.3809 17.8788 23.9599 20.2165C22.539 22.5541 20.5426 24.4886 18.1613 25.8352C15.78 27.1817 13.0933 27.8954 10.3577 27.9082C7.62211 27.9209 4.92888 27.2322 2.53516 25.9079L2.53597 25.9064C5.66177 25.8631 8.70567 24.9006 11.2881 23.1389L11.288 23.139C8.52362 21.2549 6.41818 18.5529 5.26687 15.4119C4.11555 12.2709 3.97607 8.84831 4.86799 5.62402L4.86794 5.62405C6.1454 7.59138 7.83985 9.25371 9.83125 10.4933C11.8226 11.7329 14.0623 12.5194 16.3915 12.7971L16.3911 12.7972C16.1458 11.6279 16.3272 10.4095 16.9024 9.36243C17.4777 8.31534 18.4087 7.50876 19.5271 7.08867C20.6455 6.66857 21.8774 6.66272 22.9997 7.07217C24.122 7.48162 25.0607 8.27931 25.6459 9.32089L25.6459 9.32144C27.2259 9.27429 28.7903 8.99443 30.2886 8.49088" stroke="white" stroke-width="2" stroke-linecap="round" stroke-linejoin="round"/>
</svg>
