<svg width="33" height="33" viewBox="0 0 33 33" fill="none" xmlns="http://www.w3.org/2000/svg">
<path d="M10.7881 29.9082C11.5837 29.9082 12.3468 29.5921 12.9094 29.0295C13.472 28.4669 13.7881 27.7039 13.7881 26.9082V20.9082" stroke="white" stroke-width="2" stroke-linecap="round" stroke-linejoin="round"/>
<path d="M21.7881 29.9082C20.9924 29.9082 20.2294 29.5921 19.6668 29.0295C19.1042 28.4669 18.7881 27.7039 18.7881 26.9082V20.9082" stroke="white" stroke-width="2" stroke-linecap="round" stroke-linejoin="round"/>
<path d="M19.2881 20.9082H21.2881C22.0837 20.9082 22.8468 21.2243 23.4094 21.7869C23.972 22.3495 24.2881 23.1126 24.2881 23.9082V24.9082C24.2881 25.7039 24.6042 26.4669 25.1668 27.0295C25.7294 27.5921 26.4924 27.9082 27.2881 27.9082" stroke="white" stroke-width="2" stroke-linecap="round" stroke-linejoin="round"/>
<path d="M13.2881 20.9082H11.2881C10.4924 20.9082 9.72937 21.2243 9.16677 21.7869C8.60416 22.3495 8.28809 23.1126 8.28809 23.9082V24.9082C8.28809 25.7039 7.97202 26.4669 7.40941 27.0295C6.8468 27.5921 6.08374 27.9082 5.28809 27.9082" stroke="white" stroke-width="2" stroke-linecap="round" stroke-linejoin="round"/>
<path d="M8.35205 10.4962C8.00236 9.5914 7.86001 8.61973 7.93547 7.65267C8.01093 6.68561 8.30229 5.74778 8.78809 4.9082C9.87973 4.90758 10.9539 5.18212 11.9114 5.70644C12.8689 6.23076 13.6787 6.98795 14.2662 7.90805V7.9082H18.31V7.90805C18.8974 6.98795 19.7073 6.23076 20.6648 5.70644C21.6223 5.18212 22.6965 4.90758 23.7881 4.9082C24.2739 5.74778 24.5653 6.68561 24.6407 7.65267C24.7162 8.61973 24.5738 9.5914 24.2241 10.4962V10.4962C24.9188 11.4982 25.29 12.6889 25.2881 13.9082V14.9082C25.2881 16.4995 24.656 18.0256 23.5307 19.1508C22.4055 20.2761 20.8794 20.9082 19.2881 20.9082H13.2881C11.6968 20.9082 10.1707 20.2761 9.04545 19.1508C7.92023 18.0256 7.28809 16.4995 7.28809 14.9082V13.9082C7.28614 12.6889 7.65742 11.4982 8.35205 10.4962L8.35205 10.4962Z" stroke="white" stroke-width="2" stroke-linecap="round" stroke-linejoin="round"/>
</svg>
