<svg width="100" height="100" viewBox="0 0 100 100" fill="none" xmlns="http://www.w3.org/2000/svg">
<g opacity="0.5">
<path d="M48.67 17.6895C41.9134 17.6875 35.3079 19.6892 29.689 23.4416C24.0701 27.1939 19.6902 32.5283 17.1032 38.7701C14.5161 45.0118 13.8382 51.8806 15.1552 58.5076C16.4721 65.1347 19.7247 71.2223 24.5017 76.0007C29.2787 80.779 35.3654 84.0335 41.9921 85.3523C48.6187 86.6712 55.4877 85.9953 61.7302 83.4101C67.9727 80.8249 73.3083 76.4466 77.0623 70.8288C80.8163 65.211 82.82 58.6061 82.82 51.8495C82.7989 42.7979 79.1945 34.1229 72.795 27.7215C66.3955 21.3202 57.7216 17.7132 48.67 17.6895ZM48.67 79.8795C43.484 79.8851 38.4007 78.4333 34 75.6895L35.93 66.7695C36.0033 66.4099 35.9649 66.0366 35.82 65.6995L32.92 59.3595C32.8069 59.0974 32.6293 58.8683 32.4037 58.6934C32.1782 58.5185 31.912 58.4036 31.63 58.3595L25.19 57.3595C24.8971 57.3238 24.6191 57.2103 24.385 57.0307C24.1509 56.8511 23.9692 56.612 23.8589 56.3383C23.7486 56.0646 23.7137 55.7663 23.7579 55.4746C23.8021 55.1828 23.9237 54.9082 24.11 54.6795L24.54 54.1395C24.724 53.9443 24.9543 53.7989 25.2096 53.7168C25.4649 53.6346 25.7368 53.6183 26 53.6695L29.11 54.0995H29.76L33.84 53.0995C33.95 53.0995 34.05 52.9995 34.16 52.9995L36.74 51.7095C37.001 51.5948 37.2292 51.4168 37.4039 51.1915C37.5785 50.9662 37.6941 50.7008 37.74 50.4195L38.82 42.7895C38.8595 42.4103 38.772 42.0287 38.571 41.7047C38.3701 41.3807 38.0672 41.1326 37.71 40.9995L36.32 40.4595C35.966 40.3156 35.6687 40.0598 35.4737 39.7312C35.2787 39.4026 35.1966 39.0191 35.24 38.6395C35.307 38.2744 35.4902 37.9408 35.7624 37.6885C36.0345 37.4362 36.381 37.2787 36.75 37.2395L38.68 36.9995C39.1026 36.9637 39.495 36.7656 39.7747 36.4468C40.0543 36.1279 40.1996 35.7131 40.18 35.2895L40.08 32.9195L39.86 28.2995C39.8552 27.9703 39.7502 27.6505 39.559 27.3825C39.3679 27.1146 39.0996 26.9112 38.79 26.7995L37.07 26.1595C40.6783 24.5208 44.5971 23.6783 48.56 23.6895C50.6173 23.678 52.6696 23.8926 54.68 24.3295L54.9 28.9995V29.1095L54.36 34.1095C54.3419 34.2964 54.3802 34.4845 54.47 34.6495L55.01 35.5095C55.0694 35.5919 55.1456 35.6607 55.2336 35.7116C55.3216 35.7624 55.4193 35.7941 55.5203 35.8045C55.6214 35.8149 55.7235 35.8038 55.82 35.7719C55.9164 35.74 56.0051 35.688 56.08 35.6195L57.58 34.2195C57.6706 34.1364 57.7807 34.0776 57.9001 34.0484C58.0194 34.0192 58.1442 34.0207 58.2629 34.0526C58.3816 34.0845 58.4903 34.1458 58.5789 34.2309C58.6676 34.3161 58.7333 34.4222 58.77 34.5395L58.87 34.7595C58.9047 34.908 58.987 35.0411 59.1043 35.1386C59.2217 35.2361 59.3676 35.2926 59.52 35.2995L61.24 35.3995H61.56L63.06 34.8695C63.1999 34.8086 63.3549 34.7913 63.5048 34.8198C63.6547 34.8482 63.7926 34.9211 63.9004 35.029C64.0083 35.1369 64.0812 35.2748 64.1097 35.4247C64.1382 35.5746 64.1208 35.7295 64.06 35.8695L63.2 38.4495C63.1669 38.5988 63.085 38.7329 62.9674 38.8306C62.8497 38.9283 62.7029 38.9842 62.55 38.9895L60.55 39.0895H60.34L57.87 38.3395H57.33L56.15 38.8795C56.0521 38.9337 55.942 38.9622 55.83 38.9622C55.7181 38.9622 55.6079 38.9337 55.51 38.8795L54 38.2395C53.8798 38.1772 53.7434 38.1534 53.6093 38.1713C53.4751 38.1892 53.3497 38.2479 53.25 38.3395L51.35 39.5995C51.2481 39.6738 51.1657 39.7718 51.11 39.885C51.0542 39.9983 51.0268 40.1233 51.03 40.2495L51.35 42.4995C51.3716 42.6532 51.3423 42.8098 51.2664 42.9452C51.1906 43.0807 51.0724 43.1876 50.93 43.2495L49.53 43.8995C49.4299 43.9552 49.3433 44.0324 49.2765 44.1255C49.2096 44.2185 49.164 44.3251 49.143 44.4378C49.122 44.5505 49.1261 44.6664 49.1549 44.7773C49.1838 44.8882 49.2368 44.9913 49.31 45.0795L50.31 46.0795C50.3965 46.1597 50.4995 46.2201 50.6118 46.2563C50.7241 46.2926 50.8429 46.3039 50.96 46.2895L52.89 45.8595H53.32L54.18 46.2895C54.6788 46.5975 55.1446 46.9561 55.57 47.3595C55.6444 47.4303 55.7332 47.4844 55.8302 47.518C55.9273 47.5517 56.0304 47.5643 56.1327 47.5548C56.235 47.5453 56.3341 47.5141 56.4233 47.4631C56.5126 47.4122 56.5899 47.3427 56.65 47.2595C56.6981 47.1607 56.7738 47.078 56.8678 47.0212C56.9618 46.9645 57.0702 46.9361 57.18 46.9395L58.69 46.7195C58.8503 46.6915 58.9994 46.6187 59.12 46.5095L59.23 46.3995C59.3206 46.3187 59.43 46.2619 59.5481 46.234C59.6663 46.2062 59.7895 46.2082 59.9067 46.24C60.0238 46.2718 60.1312 46.3322 60.2191 46.416C60.307 46.4997 60.3726 46.604 60.41 46.7195L61.16 48.7195C61.16 48.8295 61.27 48.8295 61.27 48.9395L62.1 49.9995C62.1618 50.0705 62.2084 50.1534 62.237 50.2431C62.2655 50.3328 62.2754 50.4274 62.2661 50.5211C62.2567 50.6147 62.2283 50.7055 62.1825 50.7878C62.1368 50.87 62.0747 50.9421 62 50.9995L60 52.9295C59.8567 53.0397 59.6809 53.0995 59.5 53.0995C59.3192 53.0995 59.1434 53.0397 59 52.9295L57.07 51.0995C56.96 50.9995 56.96 50.9995 56.85 50.9995L54 49.8095C53.89 49.8095 53.89 49.8095 53.78 49.6995L50.13 49.3795H49.81L45.62 50.5595C45.3984 50.6362 45.2108 50.7884 45.09 50.9895L43.69 55.2795C43.58 55.4995 43.69 55.5995 43.69 55.8195L45.69 60.3295C45.745 60.4544 45.8343 60.5612 45.9476 60.6373C46.0609 60.7135 46.1935 60.7558 46.33 60.7595L50.42 61.1895C50.4782 61.1826 50.5372 61.1889 50.5926 61.2079C50.648 61.227 50.6984 61.2583 50.74 61.2995L52.24 62.1595C52.3387 62.2076 52.4215 62.2832 52.4782 62.3772C52.535 62.4712 52.5634 62.5797 52.56 62.6895L53 66.7695C52.993 66.8284 52.9983 66.8881 53.0155 66.9449C53.0327 67.0017 53.0615 67.0543 53.1 67.0995L55 70.7495C55.0025 70.8044 55.0254 70.8564 55.0642 70.8952C55.1031 70.9341 55.1551 70.957 55.21 70.9595L57.57 72.6795C57.6534 72.7404 57.7485 72.7835 57.8493 72.806C57.9501 72.8285 58.0545 72.83 58.1559 72.8103C58.2573 72.7905 58.3535 72.7501 58.4385 72.6914C58.5236 72.6328 58.5956 72.5572 58.65 72.4695L59.51 71.2895L59.61 71.1795L61.23 67.0995V66.8795L61.76 61.0795C61.76 60.9795 61.76 60.8695 61.87 60.8695L63.05 58.4995C63.1132 58.3581 63.2204 58.2409 63.3555 58.1652C63.4906 58.0896 63.6465 58.0595 63.8 58.0795L67.8 58.6095C67.9156 58.6238 68.0329 58.6124 68.1435 58.5761C68.2542 58.5398 68.3554 58.4795 68.44 58.3995L69.19 57.6495C69.3217 57.5215 69.4047 57.3517 69.4248 57.1692C69.4448 56.9867 69.4007 56.803 69.3 56.6495L67.48 54.1795C67.4026 54.0818 67.3511 53.9663 67.3303 53.8434C67.3095 53.7206 67.32 53.5945 67.3609 53.4768C67.4017 53.3591 67.4717 53.2537 67.5642 53.1702C67.6567 53.0868 67.7688 53.028 67.89 52.9995L68.65 52.7795C68.75 52.7795 69.94 52.6695 70.26 52.6695H70.37L72.19 52.9995C72.3686 53.0296 72.5311 53.1209 72.6497 53.2577C72.7683 53.3946 72.8356 53.5684 72.84 53.7495L72.41 58.7495V59.0695L74 63.3395C71.8593 68.2723 68.3184 72.4687 63.8159 75.4088C59.3134 78.3488 54.0473 79.9032 48.67 79.8795Z" fill="black"/>
<path fill-rule="evenodd" clip-rule="evenodd" d="M21.31 19.9999C21.195 19.8795 21.105 19.7374 21.0452 19.582C20.9854 19.4266 20.957 19.2609 20.9617 19.0945C20.9663 18.928 21.0039 18.7641 21.0723 18.6123C21.1407 18.4605 21.2384 18.3237 21.36 18.2099C21.5904 17.9968 21.7638 17.7295 21.8644 17.4322C21.965 17.1349 21.9895 16.8172 21.9358 16.508C21.8821 16.1988 21.7519 15.908 21.557 15.662C21.3621 15.4161 21.1087 15.2228 20.82 15.0999C20.6605 15.0397 20.5149 14.9477 20.3919 14.8295C20.269 14.7114 20.1714 14.5695 20.1049 14.4125C20.0384 14.2555 20.0045 14.0866 20.0051 13.9161C20.0058 13.7456 20.0411 13.577 20.1088 13.4206C20.1766 13.2641 20.2753 13.123 20.3992 13.0058C20.5231 12.8887 20.6694 12.7978 20.8294 12.7389C20.9894 12.6799 21.1596 12.654 21.3299 12.6628C21.5002 12.6716 21.6669 12.7148 21.82 12.7899C22.3604 13.0265 22.8495 13.3662 23.26 13.7899C23.9078 14.4771 24.3185 15.3537 24.4319 16.2913C24.5453 17.2289 24.3554 18.1781 23.89 18.9999C24.5 19.6799 25.12 20.3399 25.74 20.9999C25.8697 21.1174 25.9737 21.2605 26.0455 21.4201C26.1173 21.5797 26.1554 21.7525 26.1572 21.9275C26.1591 22.1025 26.1248 22.2761 26.0564 22.4372C25.988 22.5983 25.8871 22.7436 25.7599 22.8638C25.6327 22.9841 25.4821 23.0768 25.3174 23.136C25.1527 23.1953 24.9775 23.2199 24.8029 23.2083C24.6282 23.1966 24.4579 23.149 24.3025 23.0684C24.1471 22.9878 24.0101 22.876 23.9 22.7399L22.6 21.3599L21.31 19.9999Z" fill="black"/>
<path d="M23.14 9.25031C23.4404 9.80317 23.6187 10.414 23.6629 11.0416C23.7071 11.6693 23.6162 12.2991 23.3964 12.8886C23.1765 13.4781 22.8327 14.0136 22.3883 14.459C21.9438 14.9043 21.409 15.2492 20.82 15.4703C20.6657 15.5307 20.501 15.5601 20.3353 15.5569C20.1696 15.5537 20.0062 15.5178 19.8544 15.4514C19.7026 15.385 19.5653 15.2894 19.4505 15.17C19.3356 15.0505 19.2454 14.9096 19.185 14.7553C19.1246 14.601 19.0951 14.4363 19.0984 14.2706C19.1016 14.105 19.1375 13.9416 19.2039 13.7897C19.2703 13.6379 19.3659 13.5006 19.4853 13.3858C19.6048 13.2709 19.7457 13.1807 19.9 13.1203C20.2371 12.9929 20.5308 12.7717 20.7464 12.4829C20.962 12.1941 21.0906 11.8496 21.1168 11.4901C21.1431 11.1307 21.0661 10.7712 20.8948 10.454C20.7234 10.1369 20.465 9.8754 20.15 9.70031C19.881 9.52565 19.6881 9.25571 19.61 8.94469C19.5319 8.63368 19.5743 8.30462 19.7287 8.02358C19.8832 7.74255 20.1382 7.53034 20.4426 7.42957C20.7471 7.3288 21.0784 7.34693 21.37 7.48031C22.1041 7.89263 22.7045 8.50694 23.1 9.25031H23.14Z" fill="black"/>
<path d="M20.13 2.16984C20.8949 2.88048 21.4516 3.78633 21.74 4.78984C22.0306 5.78984 22.0387 6.85078 21.7633 7.85509C21.488 8.85941 20.9399 9.76788 20.18 10.4798C19.9399 10.7132 19.617 10.8417 19.2823 10.837C18.9475 10.8323 18.6284 10.6949 18.395 10.4548C18.1616 10.2148 18.0331 9.89191 18.0378 9.55716C18.0425 9.22241 18.1799 8.90323 18.42 8.66984C18.8479 8.27483 19.1584 7.76924 19.3171 7.2089C19.4758 6.64855 19.4766 6.05524 19.3193 5.49448C19.1621 4.93373 18.8529 4.42734 18.426 4.03123C17.999 3.63512 17.4709 3.36471 16.9 3.24984C16.3345 3.13059 15.7471 3.1692 15.2021 3.36145C14.6571 3.5537 14.1755 3.89218 13.81 4.33984C13.5965 4.56014 13.3101 4.69501 13.0043 4.71918C12.6985 4.74334 12.3944 4.65513 12.149 4.47109C11.9036 4.28705 11.7338 4.01982 11.6714 3.71951C11.609 3.41919 11.6582 3.10642 11.81 2.83984C11.8278 2.8088 11.8516 2.7816 11.88 2.75984C12.3705 2.15597 12.9796 1.6591 13.6697 1.29992C14.3598 0.940753 15.1162 0.726912 15.8922 0.671618C16.6682 0.616323 17.4473 0.720748 18.1813 0.97844C18.9154 1.23613 19.5888 1.64162 20.16 2.16984H20.13Z" fill="black"/>
<path fill-rule="evenodd" clip-rule="evenodd" d="M19.46 21.7102C19.3471 21.589 19.2112 21.4914 19.0602 21.4232C18.9092 21.3549 18.7461 21.3174 18.5805 21.3127C18.4149 21.3081 18.25 21.3364 18.0954 21.3961C17.9408 21.4557 17.7996 21.5455 17.68 21.6602C17.5005 21.8341 17.2879 21.9703 17.0549 22.0606C16.8218 22.151 16.573 22.1937 16.3231 22.1862C16.0733 22.1788 15.8275 22.1213 15.6002 22.0172C15.373 21.9131 15.1689 21.7645 15 21.5802C14.8273 21.3942 14.6915 21.177 14.6 20.9402C14.5547 20.769 14.4741 20.6091 14.3633 20.4709C14.2525 20.3327 14.1141 20.2192 13.9568 20.1376C13.7996 20.0561 13.627 20.0084 13.4502 19.9975C13.2734 19.9866 13.0963 20.0129 12.9302 20.0745C12.7642 20.1362 12.6128 20.2319 12.486 20.3555C12.3591 20.4791 12.2595 20.6279 12.1936 20.7923C12.1276 20.9567 12.0968 21.1331 12.1031 21.3101C12.1094 21.4872 12.1526 21.6609 12.23 21.8202C12.435 22.3781 12.7515 22.8885 13.16 23.3202C13.8137 24.0075 14.6707 24.4669 15.605 24.6307C16.5393 24.7945 17.5015 24.6542 18.35 24.2302C18.99 24.8802 19.61 25.5402 20.24 26.2302C20.3501 26.3663 20.4872 26.4781 20.6425 26.5587C20.7979 26.6393 20.9683 26.687 21.1429 26.6986C21.3176 26.7102 21.4927 26.6856 21.6574 26.6264C21.8221 26.5671 21.9728 26.4744 22.1 26.3542C22.2271 26.2339 22.3281 26.0886 22.3964 25.9275C22.4648 25.7664 22.4992 25.5929 22.4973 25.4178C22.4954 25.2428 22.4574 25.0701 22.3856 24.9104C22.3138 24.7508 22.2098 24.6077 22.08 24.4902L20.77 23.1102L19.46 21.7102Z" fill="black"/>
<path d="M8.66003 22.9195C9.19217 23.2518 9.78921 23.4665 10.4111 23.5491C11.033 23.6317 11.6654 23.5804 12.2658 23.3985C12.8663 23.2167 13.4209 22.9086 13.8924 22.4948C14.364 22.081 14.7417 21.5712 15 20.9995C15.0738 20.8485 15.1166 20.6843 15.1259 20.5165C15.1353 20.3487 15.1109 20.1807 15.0544 20.0225C14.9978 19.8642 14.9102 19.7189 14.7966 19.595C14.683 19.4711 14.5458 19.3712 14.393 19.3012C14.2403 19.2311 14.075 19.1924 13.9071 19.1871C13.7391 19.1819 13.5718 19.2103 13.4149 19.2708C13.2581 19.3312 13.1149 19.4223 12.9939 19.5389C12.8728 19.6555 12.7763 19.7951 12.71 19.9495C12.5646 20.2818 12.3266 20.5652 12.0244 20.7659C11.7223 20.9666 11.3688 21.0762 11.0061 21.0814C10.6434 21.0867 10.2869 20.9875 9.97906 20.7957C9.67122 20.6038 9.42509 20.3275 9.27004 19.9995C9.1015 19.7417 8.845 19.5539 8.54831 19.4712C8.25161 19.3884 7.93495 19.4163 7.65728 19.5496C7.37961 19.6829 7.15986 19.9126 7.03895 20.1959C6.91804 20.4792 6.90421 20.7968 7.00003 21.0895C7.3704 21.8466 7.94994 22.4816 8.67003 22.9195H8.66003Z" fill="black"/>
<path d="M1.76995 19.5098C2.26569 20.1098 2.87904 20.6018 3.5722 20.9557C4.26536 21.3096 5.02365 21.5178 5.80034 21.5674C6.57703 21.6171 7.35566 21.5072 8.08824 21.2444C8.82083 20.9817 9.49185 20.5717 10.0599 20.0398C10.3066 19.813 10.4531 19.4976 10.4671 19.1628C10.4812 18.8281 10.3617 18.5014 10.1349 18.2548C9.90819 18.0081 9.59273 17.8617 9.25798 17.8476C8.92323 17.8335 8.5966 17.953 8.34995 18.1798C7.92902 18.5771 7.40675 18.8508 6.84048 18.9708C6.27421 19.0907 5.68583 19.0523 5.13995 18.8598C4.5935 18.6683 4.10993 18.3309 3.74171 17.884C3.37349 17.4372 3.13469 16.898 3.05122 16.3251C2.96775 15.7521 3.0428 15.1672 3.26822 14.6339C3.49365 14.1006 3.86084 13.6392 4.32995 13.2998C4.46849 13.2085 4.5877 13.0909 4.68078 12.9535C4.77385 12.8162 4.83896 12.6619 4.87239 12.4994C4.90582 12.3368 4.90691 12.1694 4.87561 12.0064C4.8443 11.8435 4.78122 11.6883 4.68995 11.5498C4.59868 11.4112 4.48102 11.292 4.34368 11.199C4.20634 11.1059 4.05201 11.0408 3.88951 11.0074C3.72701 10.9739 3.55951 10.9728 3.39658 11.0041C3.23366 11.0354 3.07849 11.0985 2.93995 11.1898L2.85995 11.2498C2.22691 11.7042 1.69414 12.284 1.29478 12.9532C0.895429 13.6223 0.638035 14.3665 0.53861 15.1394C0.439186 15.9122 0.499858 16.6973 0.716854 17.4457C0.933849 18.1942 1.30253 18.89 1.79995 19.4898L1.76995 19.5098Z" fill="black"/>
<path fill-rule="evenodd" clip-rule="evenodd" d="M78.6499 81.0702C78.7742 81.1798 78.8756 81.3128 78.9483 81.4616C79.0211 81.6104 79.0638 81.7721 79.074 81.9374C79.0843 82.1027 79.0618 82.2684 79.0079 82.4251C78.954 82.5817 78.8697 82.7262 78.7599 82.8502C78.594 83.0368 78.4668 83.2544 78.3854 83.4905C78.3041 83.7266 78.2704 83.9764 78.2862 84.2256C78.302 84.4748 78.367 84.7184 78.4775 84.9423C78.588 85.1662 78.7418 85.366 78.9299 85.5302C79.1274 85.6925 79.3504 85.8209 79.5899 85.9102C79.7469 85.9627 79.8919 86.0456 80.0168 86.1542C80.1417 86.2628 80.244 86.3949 80.3178 86.543C80.3916 86.6911 80.4355 86.8523 80.4471 87.0174C80.4586 87.1825 80.4375 87.3483 80.3849 87.5052C80.3324 87.6621 80.2495 87.8072 80.1409 87.9321C80.0323 88.0569 79.9002 88.1592 79.7521 88.233C79.604 88.3068 79.4428 88.3508 79.2777 88.3623C79.1126 88.3738 78.9469 88.3527 78.7899 88.3002C78.2255 88.1137 77.7049 87.8143 77.2599 87.4202C76.5514 86.7912 76.0632 85.9516 75.867 85.0246C75.6709 84.0977 75.777 83.1323 76.1699 82.2702C75.4999 81.6502 74.8199 81.0502 74.1699 80.4502C74.0458 80.3405 73.9446 80.2075 73.8719 80.0587C73.7992 79.9099 73.7565 79.7483 73.7463 79.583C73.7361 79.4177 73.7585 79.252 73.8123 79.0954C73.8662 78.9388 73.9503 78.7943 74.0599 78.6702C74.1696 78.5461 74.3026 78.4448 74.4514 78.3721C74.6002 78.2994 74.7619 78.2568 74.9272 78.2465C75.0924 78.2363 75.2581 78.2588 75.4147 78.3126C75.5714 78.3664 75.7158 78.4505 75.8399 78.5602L77.2599 79.8102L78.6499 81.0702Z" fill="black"/>
<path d="M77.8198 91.9096C77.4707 91.3866 77.2375 90.7951 77.1357 90.1746C77.034 89.5541 77.0661 88.919 77.23 88.3119C77.3938 87.7049 77.6856 87.1399 78.0857 86.6548C78.4858 86.1698 78.985 85.7759 79.5499 85.4996C79.6982 85.4254 79.8598 85.3811 80.0253 85.3694C80.1908 85.3576 80.357 85.3786 80.5144 85.431C80.6718 85.4835 80.8173 85.5665 80.9426 85.6752C81.0679 85.7839 81.1707 85.9162 81.2449 86.0646C81.319 86.213 81.3633 86.3745 81.375 86.54C81.3868 86.7055 81.3659 86.8717 81.3134 87.0291C81.2609 87.1865 81.178 87.332 81.0693 87.4574C80.9606 87.5827 80.8282 87.6854 80.6798 87.7596C80.3552 87.9168 80.0823 88.1636 79.8934 88.4709C79.7045 88.7782 79.6074 89.1331 79.6137 89.4938C79.62 89.8544 79.7294 90.2057 79.929 90.5062C80.1285 90.8067 80.4099 91.0439 80.7398 91.1896C81.0475 91.3222 81.2899 91.5716 81.4136 91.8829C81.5374 92.1942 81.5325 92.5419 81.3998 92.8496C81.2672 93.1572 81.0178 93.3996 80.7065 93.5234C80.3952 93.6472 80.0475 93.6422 79.7398 93.5096C78.9727 93.1675 78.3201 92.6122 77.8598 91.9096H77.8198Z" fill="black"/>
<path d="M81.47 98.6803C80.8525 98.2059 80.3387 97.6099 79.9604 96.9293C79.5821 96.2486 79.3473 95.4977 79.2705 94.7227C79.1937 93.9478 79.2764 93.1654 79.5137 92.4237C79.7509 91.682 80.1376 90.9968 80.65 90.4103C80.7576 90.2842 80.8891 90.1806 81.0368 90.1054C81.1846 90.0301 81.3457 89.9847 81.511 89.9717C81.6763 89.9587 81.8425 89.9783 82.0002 90.0296C82.1578 90.0808 82.3039 90.1626 82.43 90.2703C82.556 90.378 82.6597 90.5095 82.7349 90.6572C82.8102 90.8049 82.8556 90.966 82.8686 91.1313C82.8816 91.2966 82.8619 91.4628 82.8107 91.6205C82.7594 91.7782 82.6776 91.9242 82.57 92.0503C82.1881 92.4827 81.9319 93.0115 81.8292 93.5791C81.7265 94.1468 81.7811 94.7318 81.9871 95.2706C82.1932 95.8094 82.5428 96.2816 82.9981 96.6358C83.4534 96.9901 83.997 97.213 84.57 97.2803C85.149 97.354 85.7372 97.2637 86.2675 97.0197C86.7978 96.7758 87.2491 96.3879 87.57 95.9003C87.758 95.6429 88.0359 95.4656 88.3486 95.4036C88.6612 95.3417 88.9858 95.3995 89.2578 95.5657C89.5297 95.7319 89.7293 95.9944 89.8168 96.3009C89.9042 96.6074 89.8733 96.9356 89.73 97.2203L89.67 97.3003C89.2372 97.9467 88.6764 98.4975 88.0224 98.9187C87.3683 99.3398 86.6349 99.6224 85.8673 99.7489C85.0998 99.8754 84.3144 99.8432 83.5598 99.6542C82.8052 99.4653 82.0973 99.1236 81.48 98.6503L81.47 98.6803Z" fill="black"/>
<path fill-rule="evenodd" clip-rule="evenodd" d="M80.3298 79.1599C80.4539 79.2697 80.5983 79.3539 80.755 79.4078C80.9116 79.4617 81.0773 79.4842 81.2426 79.474C81.408 79.4637 81.5697 79.421 81.7185 79.3483C81.8673 79.2755 82.0003 79.1741 82.1098 79.0499C82.2723 78.8609 82.471 78.7062 82.6941 78.5951C82.9172 78.484 83.1603 78.4186 83.4091 78.4027C83.6578 78.3869 83.9072 78.4209 84.1426 78.5029C84.378 78.5848 84.5947 78.713 84.7798 78.8799C84.972 79.0469 85.1285 79.2509 85.2398 79.4799C85.3857 79.7809 85.6452 80.0116 85.9612 80.1214C86.2772 80.2311 86.6238 80.2108 86.9248 80.0649C87.2259 79.919 87.4566 79.6595 87.5663 79.3435C87.676 79.0275 87.6557 78.6809 87.5098 78.3799C87.2423 77.8214 86.8599 77.3258 86.3876 76.9253C85.9153 76.5248 85.3638 76.2285 84.7692 76.0558C84.1745 75.883 83.5501 75.8377 82.9368 75.9229C82.3234 76.008 81.7349 76.2217 81.2098 76.5499C80.4998 75.9699 79.8198 75.3699 79.1398 74.7699C78.8879 74.5484 78.5583 74.4361 78.2235 74.4577C77.8888 74.4793 77.5763 74.6329 77.3548 74.8849C77.1334 75.1368 77.0211 75.4664 77.0427 75.8012C77.0642 76.1359 77.2179 76.4484 77.4698 76.6699L78.8898 77.9199L80.3298 79.1599Z" fill="black"/>
<path d="M90.9998 76.9999C90.2493 76.6222 89.4045 76.4727 88.5698 76.5699C87.7298 76.6608 86.9339 76.9923 86.2776 77.5244C85.6213 78.0565 85.1325 78.7668 84.8698 79.5699C84.7598 79.8855 84.7796 80.2319 84.9249 80.5329C85.0703 80.8339 85.3292 81.0648 85.6448 81.1749C85.9605 81.2849 86.3069 81.2651 86.6079 81.1198C86.9089 80.9744 87.1398 80.7155 87.2498 80.3999C87.3652 80.0582 87.5759 79.7567 87.8571 79.5309C88.1382 79.3051 88.4781 79.1644 88.8366 79.1255C89.1952 79.0866 89.5573 79.1511 89.8804 79.3113C90.2034 79.4716 90.4739 79.7209 90.6599 80.0299C90.8336 80.3163 91.1139 80.522 91.4393 80.6017C91.7647 80.6814 92.1084 80.6286 92.3948 80.4549C92.6813 80.2812 92.887 80.0008 92.9667 79.6754C93.0464 79.35 92.9936 79.0063 92.8198 78.7199C92.3944 77.9809 91.7617 77.3829 90.9998 76.9999Z" fill="black"/>
<path d="M98.1499 79.7195C97.6022 79.1659 96.9466 78.7309 96.2237 78.4414C95.5008 78.1518 94.7261 78.014 93.9477 78.0366C93.1693 78.0591 92.4039 78.2414 91.699 78.5722C90.994 78.903 90.3646 79.3752 89.8499 79.9595C89.6244 80.2075 89.5067 80.5349 89.5227 80.8696C89.5386 81.2044 89.6869 81.5191 89.9349 81.7445C90.1828 81.97 90.5102 82.0877 90.845 82.0717C91.1797 82.0558 91.4944 81.9075 91.7199 81.6595C92.0049 81.3288 92.3552 81.0605 92.7489 80.8714C93.1425 80.6824 93.5709 80.5768 94.0073 80.5611C94.4437 80.5454 94.8786 80.62 95.2847 80.7803C95.6909 80.9406 96.0596 81.1831 96.3677 81.4925C96.6757 81.802 96.9165 82.1717 97.075 82.5786C97.2335 82.9855 97.3062 83.4207 97.2885 83.857C97.2709 84.2933 97.1633 84.7213 96.9725 85.1141C96.7818 85.5068 96.5119 85.8559 96.1799 86.1395C95.9146 86.349 95.7435 86.6553 95.7041 86.991C95.6648 87.3267 95.7603 87.6643 95.9699 87.9295C96.1794 88.1947 96.4857 88.3659 96.8214 88.4053C97.1571 88.4446 97.4946 88.349 97.7599 88.1395L97.8399 88.0695C98.6251 87.3871 99.2074 86.5018 99.5231 85.5106C99.8389 84.5194 99.8758 83.4604 99.6299 82.4495C99.3962 81.421 98.8842 80.4766 98.1499 79.7195Z" fill="black"/>
</g>
</svg>
