<svg width="101" height="100" viewBox="0 0 101 100" fill="none" xmlns="http://www.w3.org/2000/svg">
<g opacity="0.5">
<path d="M5.1302 16L3.6602 21.86H8.8802L2.2002 46.77H8.8802L16.8502 21.86H21.2502L23.7302 16H5.1302Z" fill="black"/>
<path d="M26.8501 16L17.1201 46.77H35.7401L46.2001 16H26.8501ZM31.5001 40.91H25.5001L31.6101 21.91H37.3401L31.5001 40.91Z" fill="black"/>
<path d="M52.8501 16L47.6201 20.4L38.1401 46.77H45.5001L47.6201 39.44H57.8801L66.6701 16H52.8501ZM54.9501 33.58H49.0901L53.2001 21.86H59.3401L54.9501 33.58Z" fill="black"/>
<path d="M8.06039 70.2102H14.6604L13.9204 74.6102H19.1204L21.2504 68.7502L10.9904 61.4202L15.3904 49.7002H34.2604L31.4404 58.6102L25.6404 58.4902V55.5602H19.7804L18.3204 59.9602L28.5704 67.2802L24.1804 80.4702H5.40039L8.06039 70.2102Z" fill="black"/>
<path d="M37.3701 49.4902H44.5301L40.3001 61.4202H44.6901L49.6601 49.4902L56.4101 49.7002L45.6101 80.4702H38.8001L43.2301 67.2802L38.1401 67.1902L33.1701 80.4702H27.1101L37.3701 49.4902Z" fill="black"/>
<path d="M59.3402 49.0996L48.5002 80.4696H67.0102L78.5702 49.4696L59.3402 49.0996ZM62.2702 74.6096H56.4102L63.7402 55.6096H69.3402L62.2702 74.6096Z" fill="black"/>
<path d="M81.1203 49.2598L78.5903 55.1298H83.8103L75.3003 80.9998H83.7703L91.7803 55.1298H96.1803L98.6603 49.2598H81.1203Z" fill="black"/>
</g>
</svg>
